<?xml version="1.0" encoding="UTF-8" standalone="no"?>
<svg
   xmlns:dc="http://purl.org/dc/elements/1.1/"
   xmlns:cc="http://creativecommons.org/ns#"
   xmlns:rdf="http://www.w3.org/1999/02/22-rdf-syntax-ns#"
   xmlns:svg="http://www.w3.org/2000/svg"
   xmlns="http://www.w3.org/2000/svg"
   xmlns:xlink="http://www.w3.org/1999/xlink"
   version="1.1"
   id="svg4644"
   viewBox="0 0 872.32969 343.61424"
   height="343.61426"
   width="872.32965">
  <defs
     id="defs4646">
    <linearGradient
       id="linearGradient7239">
      <stop
         id="stop7241"
         offset="0"
         style="stop-color:#000000;stop-opacity:1;" />
      <stop
         id="stop7243"
         offset="1"
         style="stop-color:#000000;stop-opacity:0;" />
    </linearGradient>
    <filter
       id="filter7223"
       style="color-interpolation-filters:sRGB">
      <feFlood
         id="feFlood7225"
         result="flood"
         flood-color="rgb(226,166,102)"
         flood-opacity="1" />
      <feComposite
         id="feComposite7227"
         result="composite1"
         operator="in"
         in2="SourceGraphic"
         in="flood" />
      <feGaussianBlur
         id="feGaussianBlur7229"
         result="blur"
         stdDeviation="1.38778e-016"
         in="composite1" />
      <feOffset
         id="feOffset7231"
         result="offset"
         dy="2"
         dx="0.5" />
      <feComposite
         id="feComposite7233"
         result="composite2"
         operator="over"
         in2="offset"
         in="SourceGraphic" />
    </filter>
    <linearGradient
       gradientUnits="userSpaceOnUse"
       y2="326.4675"
       x2="692.97314"
       y1="326.4675"
       x1="-30.851126"
       id="linearGradient7245"
       xlink:href="#linearGradient7239" />
  </defs>
  <metadata
     id="metadata4649">
    <rdf:RDF>
      <cc:Work
         rdf:about="">
        <dc:format>image/svg+xml</dc:format>
        <dc:type
           rdf:resource="http://purl.org/dc/dcmitype/StillImage" />
        <dc:title></dc:title>
      </cc:Work>
    </rdf:RDF>
  </metadata>
  <g
     transform="translate(118.29257,-241.53829)"
     id="layer1">
    <path
       id="path4652"
       d="m 74.285714,409.50506 c 0,0 78.702696,-88.19506 301.559836,-88.19506 222.85714,0 319.45541,210.45325 319.45541,210.45325"
       style="fill:none;fill-rule:evenodd;stroke:none;stroke-width:1px;stroke-linecap:butt;stroke-linejoin:miter;stroke-opacity:1" />
    <text
       transform="matrix(1.0191575,0,0,0.99591413,-14.617042,1.3354433)"
       id="text4654"
       style="font-style:normal;font-variant:normal;font-weight:normal;font-stretch:normal;font-size:155px;line-height:125%;font-family:Cookie;-inkscape-font-specification:'Cookie, Normal';text-align:start;letter-spacing:0px;word-spacing:0px;writing-mode:lr-tb;text-anchor:start;fill:#ffffff;fill-opacity:1;stroke:none;stroke-width:1px;stroke-linecap:butt;stroke-linejoin:miter;stroke-opacity:1;filter:url(#filter7223);"
       xml:space="preserve"><textPath
         id="textPath7254"
         xlink:href="#path7249"><tspan
   style="font-style:normal;font-variant:normal;font-weight:normal;font-stretch:normal;font-size:155px;line-height:125%;font-family:Cookie;-inkscape-font-specification:'Cookie, Normal';text-align:start;writing-mode:lr-tb;text-anchor:start;fill:#ffffff;fill-opacity:1;stroke:none;stroke-opacity:1;"
   id="tspan4656">Crust &amp; Crumb</tspan></textPath></text>
    <text
       id="text7235"
       y="419.14355"
       x="121.33937"
       style="font-style:normal;font-variant:normal;font-weight:normal;font-stretch:normal;font-size:35px;line-height:125%;font-family:Harrington;-inkscape-font-specification:'Harrington, Normal';text-align:start;letter-spacing:0px;word-spacing:0px;writing-mode:lr-tb;text-anchor:start;fill:#ffffff;fill-opacity:1;stroke:none;stroke-width:1px;stroke-linecap:butt;stroke-linejoin:miter;stroke-opacity:1;"
       xml:space="preserve"><tspan
         y="419.14355"
         x="121.33937"
         id="tspan7237">local artisan baked goods</tspan></text>
    <path
       id="path7249"
       d="m 24.243661,405.86457 c 0,0 139.401049,-61.6193 333.350339,-62.62945 193.94929,-1.01015 384.86812,77.78175 384.86812,77.78175"
       style="fill:none;fill-rule:evenodd;stroke:none;stroke-width:1px;stroke-linecap:butt;stroke-linejoin:miter;stroke-opacity:1" />
    <g
       transform="matrix(1.25,0,0,-1.25,717.78058,471.97977)"
       id="g3872"
       style="display:inline">
      <path
         id="path3874"
         style="fill:#e1bc65;fill-opacity:1;fill-rule:nonzero;stroke:none"
         d="m 0,0 c -0.903,-0.174 -1.822,-0.345 -2.761,-0.506 -29.305,-4.956 -64.799,9.277 -97.801,18.109 -14.476,3.869 -27.453,8.97 -40.796,10.901 -38.977,5.663 -62.56,-5.148 -71.647,-21.512 5.067,4.265 10.669,7.774 16.651,10.236 9.926,5.169 25.238,7.858 48.7,3.959 14.164,-2.357 32.137,-8.647 46.508,-12.489 33.617,-8.997 68.839,-18.973 99.395,-13.915 12.918,2.141 22.3,6.489 29.132,11.487 C 18.694,2.085 9.353,-0.165 0,0" />
      <path
         d="m 0,0 c -0.903,-0.174 -1.822,-0.345 -2.761,-0.506 -29.305,-4.956 -64.799,9.277 -97.801,18.109 -14.476,3.869 -27.453,8.97 -40.796,10.901 -38.977,5.663 -62.56,-5.148 -71.647,-21.512 5.067,4.265 10.669,7.774 16.651,10.236 9.926,5.169 25.238,7.858 48.7,3.959 14.164,-2.357 32.137,-8.647 46.508,-12.489 33.617,-8.997 68.839,-18.973 99.395,-13.915 12.918,2.141 22.3,6.489 29.132,11.487 C 18.694,2.085 9.9590915,0.9461678 0,0"
         style="fill:#e1bc65;fill-opacity:1;fill-rule:nonzero;stroke:none"
         id="path3876" />
    </g>
    <g
       transform="matrix(1.25,0,0,-1.25,320.36733,467.43876)"
       id="g3879"
       style="display:inline;stroke:none;stroke-opacity:1;fill:#ffffff;fill-opacity:1">
      <path
         id="path3881"
         style="fill:#ffffff;fill-opacity:1;fill-rule:nonzero;stroke:none;stroke-opacity:1"
         d="m 0,0 12.015,8.516 -14.812,0 -4.142,12.565 0,0.156 -0.028,-0.077 -0.022,0.077 0,-0.156 -4.148,-12.565 -14.801,0 L -13.927,0 -18.393,-13.692 -6.967,-4.638 4.472,-13.692 0,0 Z" />
    </g>
    <g
       transform="matrix(1.2083999,0,0,-1.25,-83.204165,471.97977)"
       id="g3883"
       style="display:inline">
      <path
         id="path3885"
         style="fill:#e1bc65;fill-opacity:1;fill-rule:nonzero;stroke:none"
         d="m 0,0 c 0.903,-0.178 1.822,-0.349 2.761,-0.506 29.304,-4.956 64.796,9.277 97.799,18.105 14.476,3.871 27.452,8.974 40.798,10.905 38.974,5.659 62.559,-5.148 71.644,-21.512 -5.063,4.261 -10.668,7.774 -16.65,10.236 -9.927,5.169 -25.237,7.858 -48.698,3.959 C 133.489,18.83 115.515,12.54 101.144,8.698 67.526,-0.303 32.305,-10.279 1.747,-5.22 -11.17,-3.076 -20.552,1.272 -27.382,6.27 -18.697,2.081 -9.354,-0.165 0,0" />
    </g>
    <g
       transform="matrix(1.25,0,0,-1.25,171.89008,573.53863)"
       id="g3887"
       style="display:inline">
      <path
         style="fill:#e1bc65;fill-opacity:1;fill-rule:nonzero;stroke:none"
         d="m 349.47266,638.39258 c -0.19125,0.003 2.72421,6.34461 5.94922,14.00586 3.2425,7.76 6.7775,13.80836 6.875,13.81836 0.20125,-0.0788 -3.05852,-6.13243 -6.29102,-13.85742 -3.22875,-7.665 -6.41445,-14.01305 -6.5332,-13.9668 z m 8.48242,22.9707 c -1.04,0.105 -0.21399,3.80672 1.91601,8.32422 0.91513,1.89554 1.92879,3.59465 2.875,4.93945 -1.4768,-1.36318 -2.92435,-2.78458 -4.32031,-4.29687 1.7034,1.92499 3.45654,3.75494 5.24219,5.51758 0.59039,0.7169 1.1234,1.23952 1.54492,1.49218 8.58854,8.15748 18.06052,14.54932 28.14844,19.58008 -15.41017,5.18329 -31.63556,8.41131 -47.53516,12.33789 -37.67,9.2975 -75.76961,18.57446 -107.00586,43.06446 6.3,-4.80125 13.05789,-8.68704 20.21289,-11.61329 0.7225,-0.405 1.46055,-0.81531 2.2168,-1.22656 23.58875,-12.8075 56.36984,-18.31805 85.93359,-25.62304 12.96875,-3.20376 24.93133,-5.26766 36.54883,-9.03516 4.96185,-1.60543 9.82559,-3.45425 14.56836,-5.57422 4.73649,2.1188 9.59131,3.97053 14.54688,5.57422 11.61875,3.7675 23.58007,5.8314 36.54882,9.03516 29.56625,7.30498 62.3468,12.81554 85.93555,25.62304 0.75875,0.41125 1.49555,0.82156 2.2168,1.22656 7.15625,2.92625 13.91344,6.81204 20.21094,11.61329 -31.23375,-24.49 -69.33391,-33.76696 -107.00391,-43.06446 -15.8996,-3.92658 -32.12662,-7.15272 -47.53711,-12.33593 12.82547,-6.38794 24.65662,-14.97158 34.9375,-26.5918 -3.3,3.575 -6.83336,6.73297 -10.56836,9.48047 -9.09681,6.70728 -18.98322,11.54905 -29.29883,15.36718 -10.31518,-3.81798 -20.20058,-8.66028 -29.29687,-15.36718 -1.0258,-0.75484 -2.03258,-1.54849 -3.02735,-2.36524 0.6974,-0.58378 -0.30685,-4.097 -2.32617,-8.18554 -2.155,-4.44 -4.63359,-8.01774 -5.68359,-7.89649 z m -8.29102,12.52344 c -1.57562,-0.02 -2.51976,0.22547 -2.44726,0.74609 0.15625,1.03375 4.27531,2.83758 9.25781,3.86133 5.01,0.9975 8.85039,0.90469 8.68164,-0.13281 -0.15875,-1.05375 -4.3007,-2.60602 -9.25195,-3.63477 -2.4575,-0.53562 -4.66461,-0.81984 -6.24024,-0.83984 z"
         transform="matrix(0.8,0,0,-0.8,-207.22636,592.5667)"
         id="path3889" />
    </g>
    <g
       transform="matrix(1.25,0,0,-1.25,341.9347,512.56701)"
       id="g3891"
       style="display:inline">
      <path
         id="path3893"
         style="fill:#e1bc65;fill-opacity:1;fill-rule:nonzero;stroke:none"
         d="m 0,0 c 14.743,10.672 28.494,22.923 42.348,34.269 l -0.292,0.354 C 28.212,23.281 14.484,11.059 -0.21,0.416 -0.138,0.278 -0.068,0.139 0,0" />
    </g>
    <g
       transform="matrix(1.25,0,0,-1.25,341.9347,512.56701)"
       id="g3895"
       style="display:inline">
      <path
         id="path3897"
         style="fill:none;stroke:#e1bc65;stroke-width:0.27599999;stroke-linecap:butt;stroke-linejoin:miter;stroke-miterlimit:4;stroke-dasharray:none;stroke-opacity:1"
         d="m 0,0 c 14.743,10.672 28.494,22.923 42.348,34.269 l -0.292,0.354 C 28.212,23.281 14.484,11.059 -0.21,0.416 -0.138,0.278 -0.068,0.139 0,0 Z" />
    </g>
    <g
       transform="matrix(1.25,0,0,-1.25,401.52571,461.99939)"
       id="g3899"
       style="display:inline">
      <path
         id="path3901"
         style="fill:#e1bc65;fill-opacity:1;fill-rule:nonzero;stroke:none"
         d="M 0,0 C 3.505,2.704 6.706,4.412 7.152,3.808 7.56,3.259 5.078,0.636 1.604,-2.043 -1.868,-4.725 -4.978,-6.558 -5.442,-5.988 -5.887,-5.45 -3.503,-2.709 0,0" />
    </g>
    <g
       transform="matrix(1.25,0,0,-1.25,401.52571,461.99939)"
       id="g3903"
       style="display:inline">
      <path
         style="fill:none;stroke:#e1bc65;stroke-width:0.28;stroke-linecap:butt;stroke-linejoin:miter;stroke-miterlimit:4;stroke-dasharray:none;stroke-opacity:1"
         d="m 492.91992,603.07617 c -0.11875,0.0125 -4.49789,6.89281 -9.21289,15.44531 -5.125,8.3575 -10.54586,14.92797 -9.72461,15.10547 -0.17387,-0.063 0.62111,-1.15792 1.73828,-2.66211 -1.04044,1.46617 -2.2001,3.50386 -3.20508,5.78321 -2.055,4.5775 -2.84085,8.32664 -1.7871,8.40039 1.05125,0.0775 3.53664,-3.54789 5.58789,-8.11914 2.0675,-4.55625 2.98062,-8.31696 1.92187,-8.40821 -0.51356,-0.0397 -1.40944,0.81249 -2.42578,2.22071 1.95795,-2.63301 5.169,-6.87141 8.45703,-12.2168 4.76625,-8.585 8.84289,-15.48508 8.65039,-15.54883 z m 30.02344,3.57031 c 0.11375,-0.0525 -7.49492,2.57344 -14.66992,8.99219 -5.78087,5.07276 -10.27066,9.33046 -11.78516,10.83789 0.88443,-1.01589 1.33528,-1.78015 1.1211,-2.06836 -0.55751,-0.755 -4.56016,1.38172 -8.94141,4.76172 -4.37875,3.38625 -7.35899,6.81188 -6.80274,7.48438 0.58,0.7125 4.4686,-1.57914 8.8086,-4.93164 2.14903,-1.65725 3.99003,-3.29411 5.24414,-4.61133 0.66965,-0.38093 6.03782,-5.26723 12.72656,-11.12891 7.08625,-6.33 14.43383,-9.09344 14.29883,-9.33594 z m -42.21484,2.45704 c -0.2225,-0.0438 -4.32664,7.02718 -7.0879,15.64843 -2.71138,8.11288 -7.98806,14.52653 -7.41796,15.25 -0.56144,1.02067 -1.12048,2.14621 -1.64063,3.34375 -2.00875,4.58125 -2.78101,8.34532 -1.72851,8.41407 1.04875,0.07 3.52109,-3.57946 5.52734,-8.15821 2.0225,-4.56625 2.85437,-8.33976 1.79687,-8.41601 -0.76114,-0.0511 -2.33485,1.89377 -3.90234,4.72265 0.0874,-1.01916 5.25089,-7.13052 7.98438,-15.16992 2.77875,-8.6675 6.55375,-15.58101 6.46875,-15.63476 z m -8.7754,9.0371 c -0.2325,-0.0512 -4.04148,6.81336 -7.14648,15.19336 -1.79875,4.185 -3.53422,7.91797 -5.35547,10.54297 -1.85,2.795 -1.11109,4.40969 -1.15234,4.33594 0.2125,-0.0612 -0.33695,-1.58687 1.52929,-4.23437 1.9075,-2.59125 3.78063,-6.42914 5.57813,-10.61914 3.1225,-8.425 6.61438,-15.1825 6.54687,-15.21876 z m 14.5,4.01758 c -1.05374,-0.1025 -3.80109,3.46633 -5.90234,8.04883 -2.14125,4.55625 -2.96195,8.29602 -1.9082,8.38477 1.0425,0.0738 3.58398,-3.49649 5.70898,-8.05274 2.1375,-4.53875 3.17156,-8.26211 2.10156,-8.38086 z m -24.26562,5.28907 c -0.43,-0.09 -3.48492,6.33875 -6.16992,14 -3.58181,6.24146 -5.91104,11.65424 -6.3457,13.30468 -0.28321,0.57049 -0.56368,1.15932 -0.83594,1.76758 -2.0225,4.5275 -2.85149,8.29266 -1.80274,8.37891 1.04375,0.0825 3.57516,-3.55344 5.59766,-8.08594 2.01,-4.57125 2.77976,-8.32734 1.72852,-8.40234 -0.7291,-0.0598 -2.13213,1.70913 -3.59766,4.29492 1.14747,-2.47347 3.09715,-6.42376 5.83398,-11.19922 2.765,-7.85 5.43305,-13.99734 5.5918,-14.05859 z m 64.08789,0.34375 c -0.0125,-0.18375 -7.21516,1.40867 -16.25391,4.41992 -6.45426,2.0623 -11.9303,3.78971 -14.62695,4.6875 0.9096,-0.45457 1.47653,-0.88847 1.52539,-1.25782 0.14875,-1.00624 -3.68469,-1.1514 -8.55469,-0.0977 -4.85875,1.0675 -8.95054,2.79625 -9.06054,3.84375 -0.12875,1.03 3.74836,0.96515 8.59961,-0.0898 2.37235,-0.5387 4.54555,-1.18075 6.16797,-1.81641 1.76608,-0.39697 8.26178,-2.27047 15.99609,-4.73633 9.03875,-3.025 16.18953,-4.84187 16.20703,-4.95312 z m -74.10742,8.02148 c -0.17125,0.01 -2.48305,5.51937 -5.06055,12.29688 -2.61375,6.74 -5.22539,12.16757 -5.02539,12.20507 0.10625,0.0113 2.99485,-5.41054 5.62109,-12.18554 2.58,-6.78875 4.61985,-12.29016 4.46485,-12.31641 z m 61.50586,1.13281 c 0.0113,-0.1275 -6.55711,0.89563 -14.81836,2.73438 -4.36063,0.9579 -8.22852,2.24506 -10.99024,3.27734 0.66431,-0.39394 1.09143,-0.76721 1.12696,-1.08203 0.12375,-1.02375 -3.71008,-1.04281 -8.58008,0.0859 -4.86,1.14875 -8.90953,2.93906 -9.01953,3.97656 -0.1075,1.0375 3.76312,0.92711 8.60937,-0.21289 1.3953,-0.33795 2.70383,-0.71483 3.88867,-1.10352 0.67231,-0.047 7.08046,-2.64067 14.91602,-4.38086 8.24625,-1.82875 14.87594,-3.13492 14.86719,-3.29492 z m -66.56445,1.44727 c -0.11875,-0.0462 -3.30516,6.3018 -6.53516,13.9668 -3.2325,7.72499 -6.48961,13.77867 -6.28711,13.85742 0.0975,-0.01 3.62859,-6.05836 6.87109,-13.81836 3.225,-7.66125 6.14367,-14.00336 5.95118,-14.00586 z m 54.33203,4.97656 c -1.12115,-0.0383 -6.20399,0.46406 -12.41211,2.85938 -4.28983,1.64964 -7.89837,2.95443 -10.21289,3.79687 1.377,-0.64403 2.26222,-1.26189 2.31054,-1.73828 0.11,-1.03 -3.73031,-0.95766 -8.60156,0.21484 -4.8675,1.19 -8.89766,3.00227 -9.00391,4.04102 -0.1025,1.0425 3.7568,0.91156 8.62305,-0.27344 1.5538,-0.38705 2.99864,-0.8285 4.2793,-1.28125 0.79356,-0.0713 6.17463,-1.72451 12.64258,-4.21484 7.04125,-2.7125 12.56422,-3.23688 12.60547,-3.35938 0.01,-0.0236 -0.0703,-0.0394 -0.23047,-0.0449 z m -8.73243,6.49805 c -1.16101,0.11761 -6.27031,1.05789 -12.48828,3.08789 -2.95043,0.98988 -5.54022,1.94268 -7.70898,2.77148 0.46562,-0.33292 0.73591,-0.6376 0.76367,-0.89648 0.1025,-1.03875 -3.74719,-0.92156 -8.61719,0.27344 -4.87375,1.20125 -8.91257,3.00242 -9.01758,4.04492 -0.11125,1.04625 3.74141,0.92976 8.62891,-0.27149 2.12571,-0.52491 4.05637,-1.16151 5.59961,-1.79883 2.32616,-0.79688 5.99785,-2.09931 10.35352,-3.5625 7.0625,-2.3075 12.70437,-3.46343 12.73437,-3.64843 0.004,-0.0159 -0.0822,-0.0168 -0.24805,0 z m -4.05273,5.94531 c -1.45469,0.0939 -7.9,1.04305 -15.82422,3.74023 -9.0325,3.06 -16.3589,5.6493 -16.37891,5.74805 0.004,0.21375 7.37266,-2.13484 16.37891,-5.18359 9.0125,-3.06875 16.09836,-4.12242 16.13086,-4.29492 0.006,-0.0189 -0.0988,-0.0232 -0.30664,-0.01 z m -50.03125,5.55078 c -1.04875,-0.12125 -3.52664,3.45649 -5.68164,7.89649 -2.175,4.40375 -3.17492,8.14718 -2.13867,8.27343 1.0325,0.12 3.75125,-3.38195 5.90625,-7.8457 2.12875,-4.5175 2.95281,-8.21922 1.91406,-8.32422 z m 37.76172,2.25586 c -1.98522,0.0717 -6.7718,0.625 -12.54492,2.64063 -7.6525,2.6025 -13.81539,5.25757 -13.80664,5.36132 0.007,0.20375 6.20648,-2.21367 13.80273,-4.79492 7.625,-2.6625 13.49695,-3.00555 13.5332,-3.15429 0.0278,-0.0472 -0.32263,-0.0766 -0.98437,-0.0527 z m -2.38867,6.83008 c -1.50418,0.035 -8.13571,0.71351 -16.49414,2.93164 -3.9902,1.06475 -7.50435,2.07447 -10.43164,2.94141 1.35058,-0.6244 2.22388,-1.23241 2.29296,-1.68946 0.14375,-1.04125 -3.775,-0.9775 -8.6875,0.0937 -4.9525,1.02875 -9.0907,2.58102 -9.25195,3.63477 -0.1675,1.0375 3.67164,1.13031 8.68164,0.13281 0.0601,-0.0123 0.11592,-0.0284 0.17578,-0.041 0.24204,0.14571 7.84527,-2.00951 17.16016,-4.49414 9.49625,-2.52 16.805,-3.30578 16.875,-3.48828 0.004,-0.0186 -0.10543,-0.0265 -0.32031,-0.0215 z"
         transform="matrix(0.8,0,0,-0.8,-390.93486,503.3353)"
         id="path3905" />
    </g>
    <g
       transform="matrix(1.25,0,0,-1.25,401.2217,468.37264)"
       id="g3907"
       style="display:inline">
      <path
         id="path3909"
         style="fill:#e1bc65;fill-opacity:1;fill-rule:nonzero;stroke:none"
         d="M 0,0 C 3.896,0.843 6.963,0.726 6.844,-0.079 6.735,-0.903 3.503,-2.125 -0.368,-3.004 -4.249,-3.848 -7.351,-3.9 -7.248,-3.076 -7.16,-2.238 -3.887,-0.854 0,0" />
    </g>
    <g
       transform="matrix(1.25,0,0,-1.25,393.27008,474.79114)"
       id="g3911"
       style="display:inline">
      <path
         id="path3913"
         style="fill:#e1bc65;fill-opacity:1;fill-rule:nonzero;stroke:none"
         d="m 0,0 c 3.896,0.903 6.962,0.887 6.863,0.068 -0.094,-0.833 -3.311,-2.139 -7.192,-3.079 -3.877,-0.912 -6.973,-1 -6.887,-0.17 C -7.128,-2.351 -3.888,-0.919 0,0" />
    </g>
    <g
       transform="matrix(1.25,0,0,-1.25,385.38196,481.33164)"
       id="g3915"
       style="display:inline">
      <path
         id="path3917"
         style="fill:#e1bc65;fill-opacity:1;fill-rule:nonzero;stroke:none"
         d="M 0,0 C 3.897,0.938 6.969,0.995 6.881,0.171 6.796,-0.667 3.585,-2.045 -0.305,-3.014 -4.198,-3.962 -7.284,-4.067 -7.202,-3.233 -7.117,-2.402 -3.894,-0.952 0,0" />
    </g>
    <g
       transform="matrix(1.25,0,0,-1.25,377.51571,487.93439)"
       id="g3919"
       style="display:inline">
      <path
         id="path3921"
         style="fill:#e1bc65;fill-opacity:1;fill-rule:nonzero;stroke:none"
         d="M 0,0 C 3.896,0.956 6.976,1.051 6.894,0.22 6.805,-0.61 3.604,-2.051 -0.312,-3.018 -4.222,-3.979 -7.304,-4.073 -7.215,-3.236 -7.131,-2.402 -3.899,-0.961 0,0" />
    </g>
    <g
       transform="matrix(1.25,0,0,-1.25,369.6202,494.54939)"
       id="g3923"
       style="display:inline">
      <path
         id="path3925"
         style="fill:#e1bc65;fill-opacity:1;fill-rule:nonzero;stroke:none"
         d="M 0,0 C 3.9,0.956 6.996,1.057 6.907,0.228 6.813,-0.604 3.598,-2.078 -0.344,-3.017 -4.276,-3.952 -7.355,-4.018 -7.257,-3.181 -7.162,-2.348 -3.926,-0.935 0,0" />
    </g>
    <g
       transform="matrix(1.25,0,0,-1.25,369.6202,494.54939)"
       id="g3927"
       style="display:inline">
      <path
         id="path3929"
         style="fill:none;stroke:#e1bc65;stroke-width:0.22400001;stroke-linecap:butt;stroke-linejoin:miter;stroke-miterlimit:4;stroke-dasharray:none;stroke-opacity:1"
         d="M 0,0 C 3.9,0.956 6.996,1.057 6.907,0.228 6.813,-0.604 3.598,-2.078 -0.344,-3.017 -4.276,-3.952 -7.355,-4.018 -7.257,-3.181 -7.162,-2.348 -3.926,-0.935 0,0 Z" />
    </g>
    <g
       transform="matrix(1.25,0,0,-1.25,361.64408,501.10951)"
       id="g3931"
       style="display:inline">
      <path
         id="path3933"
         style="fill:#e1bc65;fill-opacity:1;fill-rule:nonzero;stroke:none"
         d="M 0,0 C 3.909,0.918 7.024,1.011 6.926,0.177 6.818,-0.65 3.571,-2.125 -0.391,-3.014 -4.356,-3.897 -7.436,-3.904 -7.324,-3.07 -7.213,-2.233 -3.946,-0.891 0,0" />
    </g>
    <g
       transform="matrix(1.25,0,0,-1.25,361.64408,501.10951)"
       id="g3935"
       style="display:inline">
      <path
         id="path3937"
         style="fill:none;stroke:#e1bc65;stroke-width:0.22400001;stroke-linecap:butt;stroke-linejoin:miter;stroke-miterlimit:4;stroke-dasharray:none;stroke-opacity:1"
         d="M 0,0 C 3.909,0.918 7.024,1.011 6.926,0.177 6.818,-0.65 3.571,-2.125 -0.391,-3.014 -4.356,-3.897 -7.436,-3.904 -7.324,-3.07 -7.213,-2.233 -3.946,-0.891 0,0 Z" />
    </g>
    <g
       transform="matrix(1.25,0,0,-1.25,353.53496,507.55727)"
       id="g3939"
       style="display:inline">
      <path
         id="path3941"
         style="fill:#e1bc65;fill-opacity:1;fill-rule:nonzero;stroke:none"
         d="M 0,0 C 3.93,0.857 7.065,0.909 6.95,0.076 6.825,-0.751 3.529,-2.195 -0.456,-3.014 -4.464,-3.812 -7.536,-3.738 -7.402,-2.908 -7.273,-2.065 -3.962,-0.823 0,0" />
    </g>
    <g
       transform="matrix(1.25,0,0,-1.25,397.20808,463.37014)"
       id="g3943"
       style="display:inline">
      <path
         style="fill:#e1bc65;fill-opacity:1;fill-rule:nonzero;stroke:none"
         d="m 503.39062,598.3125 c -0.0412,-0.135 -6.39164,4.92023 -10.55664,12.39648 -4.32125,7.28 -8.55656,12.88821 -8.57031,12.90821 0.22625,0.15875 4.82742,-5.51797 9.13867,-12.79297 4.17875,-7.4225 10.09328,-12.40547 9.98828,-12.51172 z m -16.9375,23.8457 c -1.05374,-0.1025 -3.80109,3.46633 -5.90234,8.04883 -2.14125,4.55625 -2.96195,8.29602 -1.9082,8.38477 1.0425,0.0738 3.58398,-3.49649 5.70898,-8.05274 2.1375,-4.53875 3.17156,-8.26211 2.10156,-8.38086 z"
         transform="matrix(0.8,0,0,-0.8,-387.48076,504.4319)"
         id="path3945" />
    </g>
    <g
       transform="matrix(1.25,0,0,-1.25,389.17346,469.85951)"
       id="g3947"
       style="display:inline">
      <path
         id="path3949"
         style="fill:#e1bc65;fill-opacity:1;fill-rule:nonzero;stroke:none"
         d="M 0,0 C 1.654,3.645 2.384,6.654 1.537,6.727 0.696,6.792 -1.421,3.897 -3.04,0.225 -4.684,-3.437 -5.314,-6.437 -4.471,-6.496 -3.63,-6.558 -1.641,-3.657 0,0" />
    </g>
    <g
       transform="matrix(1.25,0,0,-1.25,381.23758,476.43177)"
       id="g3951"
       style="display:inline">
      <path
         id="path3953"
         style="fill:#e1bc65;fill-opacity:1;fill-rule:nonzero;stroke:none"
         d="M 0,0 C 1.618,3.653 2.284,6.671 1.438,6.732 0.604,6.788 -1.448,3.867 -3.039,0.204 -4.646,-3.461 -5.263,-6.471 -4.421,-6.526 -3.582,-6.582 -1.605,-3.663 0,0" />
    </g>
    <g
       transform="matrix(1.25,0,0,-1.25,373.3592,483.05164)"
       id="g3955"
       style="display:inline">
      <path
         id="path3957"
         style="fill:#e1bc65;fill-opacity:1;fill-rule:nonzero;stroke:none"
         d="M 0,0 C 1.602,3.661 2.226,6.677 1.386,6.733 0.551,6.792 -1.444,3.854 -3.036,0.21 -4.635,-3.439 -5.262,-6.453 -4.425,-6.513 -3.588,-6.572 -1.595,-3.649 0,0" />
    </g>
    <g
       transform="matrix(1.25,0,0,-1.25,373.3592,483.05164)"
       id="g3959"
       style="display:inline">
      <path
         id="path3961"
         style="fill:none;stroke:#e1bc65;stroke-width:0.22400001;stroke-linecap:butt;stroke-linejoin:miter;stroke-miterlimit:4;stroke-dasharray:none;stroke-opacity:1"
         d="M 0,0 C 1.602,3.661 2.226,6.677 1.386,6.733 0.551,6.792 -1.444,3.854 -3.036,0.21 -4.635,-3.439 -5.262,-6.453 -4.425,-6.513 -3.588,-6.572 -1.595,-3.649 0,0 Z" />
    </g>
    <g
       transform="matrix(1.25,0,0,-1.25,365.48808,489.64214)"
       id="g3963"
       style="display:inline">
      <path
         id="path3965"
         style="fill:#e1bc65;fill-opacity:1;fill-rule:nonzero;stroke:none"
         d="M 0,0 C 1.608,3.657 2.224,6.661 1.383,6.721 0.542,6.79 -1.417,3.851 -3.036,0.234 -4.654,-3.388 -5.317,-6.4 -4.478,-6.469 -3.643,-6.535 -1.618,-3.626 0,0" />
    </g>
    <g
       transform="matrix(1.25,0,0,-1.25,357.57183,496.14977)"
       id="g3967"
       style="display:inline">
      <path
         id="path3969"
         style="fill:#e1bc65;fill-opacity:1;fill-rule:nonzero;stroke:none"
         d="M 0,0 C 1.646,3.645 2.27,6.625 1.436,6.697 0.592,6.772 -1.364,3.863 -3.029,0.276 -4.693,-3.306 -5.412,-6.309 -4.574,-6.391 -3.744,-6.471 -1.66,-3.604 0,0" />
    </g>
    <g
       transform="matrix(1.25,0,0,-1.25,357.57183,496.14977)"
       id="g3971"
       style="display:inline">
      <path
         id="path3973"
         style="fill:none;stroke:#e1bc65;stroke-width:0.22400001;stroke-linecap:butt;stroke-linejoin:miter;stroke-miterlimit:4;stroke-dasharray:none;stroke-opacity:1"
         d="M 0,0 C 1.646,3.645 2.27,6.625 1.436,6.697 0.592,6.772 -1.364,3.863 -3.029,0.276 -4.693,-3.306 -5.412,-6.309 -4.574,-6.391 -3.744,-6.471 -1.66,-3.604 0,0 Z" />
    </g>
    <g
       transform="matrix(1.25,0,0,-1.25,349.5677,502.51814)"
       id="g3975"
       style="display:inline">
      <path
         id="path3977"
         style="fill:#e1bc65;fill-opacity:1;fill-rule:nonzero;stroke:none"
         d="M 0,0 C 1.703,3.614 2.363,6.576 1.532,6.66 0.693,6.757 -1.29,3.894 -3.014,0.342 -4.754,-3.181 -5.554,-6.175 -4.725,-6.276 -3.899,-6.372 -1.724,-3.571 0,0" />
    </g>
    <g
       transform="matrix(1.25,0,0,-1.25,422.92458,465.57476)"
       id="g3979"
       style="display:inline">
      <path
         id="path3981"
         style="fill:#e1bc65;fill-opacity:1;fill-rule:nonzero;stroke:none"
         d="M 0,0 C 7.231,2.42 12.953,3.874 12.967,3.963 12.957,4.11 7.195,2.836 -0.036,0.427 -7.278,-1.887 -13.181,-3.736 -13.207,-3.854 -13.2,-3.991 -7.258,-2.314 0,0" />
    </g>
    <g
       transform="matrix(1.25,0,0,-1.25,411.6637,473.07114)"
       id="g3983"
       style="display:inline">
      <path
         id="path3985"
         style="fill:#e1bc65;fill-opacity:1;fill-rule:nonzero;stroke:none"
         d="M 0,0 C 6.597,1.463 11.901,2.508 11.894,2.636 11.903,2.738 6.648,1.92 0.039,0.449 -6.621,-1.014 -12.063,-3.5 -12.037,-3.517 -12.015,-3.723 -6.61,-1.468 0,0" />
    </g>
    <g
       transform="matrix(1.25,0,0,-1.25,401.9237,479.60439)"
       id="g3987"
       style="display:inline">
      <path
         id="path3989"
         style="fill:#e1bc65;fill-opacity:1;fill-rule:nonzero;stroke:none"
         d="M 0,0 C 5.633,2.17 10.051,2.59 10.084,2.688 10.147,2.839 5.646,2.627 -0.03,0.437 -5.66,-1.728 -10.223,-3.295 -10.243,-3.375 -10.256,-3.552 -5.61,-2.16 0,0" />
    </g>
    <g
       transform="matrix(1.25,0,0,-1.25,393.07971,486.34626)"
       id="g3991"
       style="display:inline">
      <path
         id="path3993"
         style="fill:#e1bc65;fill-opacity:1;fill-rule:nonzero;stroke:none"
         d="M 0,0 C 5.65,1.846 10.163,2.771 10.187,2.919 10.21,3.021 5.683,2.305 -0.002,0.449 -5.686,-1.458 -10.291,-3.368 -10.281,-3.467 -10.271,-3.611 -5.656,-1.9 0,0" />
    </g>
    <g
       transform="matrix(1.25,0,0,-1.25,385.68958,492.94789)"
       id="g3995"
       style="display:inline">
      <path
         id="path3997"
         style="fill:#e1bc65;fill-opacity:1;fill-rule:nonzero;stroke:none"
         d="M 0,0 C 7.21,2.455 12.879,3.299 12.905,3.437 12.944,3.558 7.245,2.918 0,0.452 -7.226,-1.996 -13.088,-4.067 -13.104,-4.146 -13.101,-4.317 -7.205,-2.439 0,0" />
    </g>
    <g
       transform="matrix(1.25,0,0,-1.25,376.69546,499.65676)"
       id="g3999"
       style="display:inline">
      <path
         id="path4001"
         style="fill:#e1bc65;fill-opacity:1;fill-rule:nonzero;stroke:none"
         d="M 0,0 C 6.1,2.13 10.797,2.405 10.826,2.524 10.915,2.675 6.161,2.603 0.003,0.453 -6.119,-1.629 -11.05,-3.753 -11.043,-3.836 -11.037,-3.999 -6.077,-2.065 0,0" />
    </g>
    <g
       transform="matrix(1.25,0,0,-1.25,370.30133,506.78939)"
       id="g4003"
       style="display:inline">
      <path
         id="path4005"
         style="fill:#e1bc65;fill-opacity:1;fill-rule:nonzero;stroke:none"
         d="M 0,0 C 7.597,2.016 13.444,2.644 13.5,2.79 13.528,2.909 7.689,2.491 0.047,0.463 -7.553,-1.565 -13.741,-3.529 -13.765,-3.598 -13.765,-3.778 -7.573,-2.02 0,0" />
    </g>
    <g
       transform="matrix(1.25,0,0,-1.25,406.25958,443.65464)"
       id="g4007"
       style="display:inline">
      <path
         id="path4009"
         style="fill:#e1bc65;fill-opacity:1;fill-rule:nonzero;stroke:none"
         d="M 0,0 C 3.343,5.938 8.075,9.925 7.991,10.01 7.958,10.118 2.877,6.074 -0.455,0.093 -3.912,-5.731 -7.3,-10.219 -7.311,-10.235 -7.13,-10.362 -3.449,-5.82 0,0" />
    </g>
    <g
       transform="matrix(1.25,0,0,-1.25,397.12633,451.45489)"
       id="g4011"
       style="display:inline">
      <path
         id="path4013"
         style="fill:#e1bc65;fill-opacity:1;fill-rule:nonzero;stroke:none"
         d="M 0,0 C 3.813,6.868 7.074,12.387 6.92,12.438 6.825,12.428 3.322,6.924 -0.45,0.082 -4.55,-6.604 -8.886,-11.86 -8.229,-12.002 -8.61,-11.864 -4.208,-6.841 0,0" />
    </g>
    <g
       transform="matrix(1.25,0,0,-1.25,387.11771,457.56939)"
       id="g4015"
       style="display:inline">
      <path
         id="path4017"
         style="fill:#e1bc65;fill-opacity:1;fill-rule:nonzero;stroke:none"
         d="M 0,0 C 2.223,6.934 5.242,12.465 5.174,12.508 4.996,12.543 1.713,6.887 -0.496,-0.01 -2.79,-6.874 -7.383,-12.222 -6.307,-12.268 -7.13,-12.244 -2.393,-7.038 0,0" />
    </g>
    <g
       transform="matrix(1.25,0,0,-1.25,378.26283,466.19001)"
       id="g4019"
       style="display:inline">
      <path
         id="path4021"
         style="fill:#e1bc65;fill-opacity:1;fill-rule:nonzero;stroke:none"
         d="M 0,0 C 2.498,6.74 5.292,12.146 5.238,12.175 5.052,12.216 2.005,6.724 -0.479,0.02 c -1.439,-3.348 -2.827,-6.333 -4.284,-8.433 -1.48,-2.236 -0.89,-3.529 -0.923,-3.47 0.17,0.049 -0.269,1.27 1.224,3.388 C -2.936,-6.422 -1.438,-3.352 0,0" />
    </g>
    <g
       transform="matrix(1.25,0,0,-1.25,369.45295,474.33577)"
       id="g4023"
       style="display:inline">
      <path
         id="path4025"
         style="fill:#e1bc65;fill-opacity:1;fill-rule:nonzero;stroke:none"
         d="M 0,0 C 2.212,6.28 4.347,11.198 4.474,11.247 4.13,11.319 1.685,6.175 -0.463,0.046 -3.916,-5.971 -5.948,-11.093 -5.578,-11.05 -5.64,-11 -3.52,-6.142 0,0" />
    </g>
    <g
       transform="matrix(1.25,0,0,-1.25,354.01596,485.22939)"
       id="g4027"
       style="display:inline">
      <path
         id="path4029"
         style="fill:#e1bc65;fill-opacity:1;fill-rule:nonzero;stroke:none"
         d="M 0,0 C 2.58,6.129 4.914,11.204 4.76,11.206 4.665,11.243 2.117,6.164 -0.467,0.032 -3.053,-6.148 -5.66,-10.991 -5.498,-11.054 -5.42,-11.046 -2.594,-6.208 0,0" />
    </g>
    <g
       transform="matrix(1.25,0,0,-1.25,360.56008,480.95926)"
       id="g4031"
       style="display:inline">
      <path
         id="path4033"
         style="fill:#e1bc65;fill-opacity:1;fill-rule:nonzero;stroke:none"
         d="M 0,0 C 2.064,5.431 3.696,9.832 3.572,9.853 3.435,9.845 1.586,5.437 -0.476,0.015 -2.567,-5.377 -4.657,-9.719 -4.497,-9.749 -4.412,-9.758 -2.101,-5.42 0,0" />
    </g>
    <g
       transform="matrix(1.25,0,0,-1.25,421.50133,448.81214)"
       id="g4035"
       style="display:inline">
      <path
         id="path4037"
         style="fill:#e1bc65;fill-opacity:1;fill-rule:nonzero;stroke:none"
         d="M 0,0 C 5.669,5.064 11.548,7.275 11.44,7.469 11.531,7.511 5.444,5.41 -0.296,0.275 -5.978,-4.711 -10.315,-8.91 -10.282,-8.966 -10.167,-9.077 -5.645,-4.947 0,0" />
    </g>
    <g
       transform="matrix(1.25,0,0,-1.25,280.3612,512.56701)"
       id="g4039"
       style="display:inline">
      <path
         id="path4041"
         style="fill:#e1bc65;fill-opacity:1;fill-rule:nonzero;stroke:none"
         d="m 0,0 c -14.742,10.672 -28.495,22.923 -42.346,34.269 l 0.29,0.354 C -28.211,23.281 -14.484,11.059 0.21,0.416 0.138,0.278 0.069,0.139 0,0" />
    </g>
    <g
       transform="matrix(1.25,0,0,-1.25,280.3612,512.56701)"
       id="g4043"
       style="display:inline">
      <path
         id="path4045"
         style="fill:none;stroke:#e1bc65;stroke-width:0.27599999;stroke-linecap:butt;stroke-linejoin:miter;stroke-miterlimit:4;stroke-dasharray:none;stroke-opacity:1"
         d="m 0,0 c -14.742,10.672 -28.495,22.923 -42.346,34.269 l 0.29,0.354 C -28.211,23.281 -14.484,11.059 0.21,0.416 0.138,0.278 0.069,0.139 0,0 Z" />
    </g>
    <g
       transform="matrix(1.25,0,0,-1.25,220.77196,461.99939)"
       id="g4047"
       style="display:inline">
      <path
         id="path4049"
         style="fill:#e1bc65;fill-opacity:1;fill-rule:nonzero;stroke:none"
         d="M 0,0 C -3.507,2.704 -6.708,4.412 -7.154,3.808 -7.56,3.259 -5.08,0.636 -1.604,-2.043 1.867,-4.725 4.977,-6.558 5.443,-5.988 5.886,-5.45 3.501,-2.709 0,0" />
    </g>
    <g
       transform="matrix(1.25,0,0,-1.25,220.77196,461.99939)"
       id="g4051"
       style="display:inline">
      <path
         style="fill:none;stroke:#e1bc65;stroke-width:0.28;stroke-linecap:butt;stroke-linejoin:miter;stroke-miterlimit:4;stroke-dasharray:none;stroke-opacity:1"
         d="m 273.63672,606.64648 c -0.135,0.2425 7.21648,3.00594 14.30273,9.33594 6.69424,5.86962 12.07073,10.76181 12.72657,11.13086 1.25407,1.31691 3.09488,2.95291 5.24414,4.60938 4.33875,3.3525 8.22609,5.64414 8.80859,4.93164 0.55375,-0.6725 -2.42844,-4.09813 -6.80469,-7.48438 -4.38375,-3.38 -8.3839,-5.51672 -8.9414,-4.76172 -0.21236,0.28716 0.23348,1.04645 1.11132,2.05664 -1.53087,-1.52307 -6.01364,-5.77191 -11.77343,-10.82617 -7.1775,-6.41875 -14.78633,-9.04469 -14.67383,-8.99219 z"
         transform="matrix(0.8,0,0,-0.8,-246.33186,503.3353)"
         id="path4053" />
    </g>
    <g
       transform="matrix(1.25,0,0,-1.25,221.07645,468.37264)"
       id="g4055"
       style="display:inline">
      <path
         id="path4057"
         style="fill:#e1bc65;fill-opacity:1;fill-rule:nonzero;stroke:none"
         d="M 0,0 C -3.897,0.843 -6.963,0.726 -6.847,-0.079 -6.736,-0.903 -3.505,-2.125 0.366,-3.004 4.248,-3.848 7.348,-3.9 7.248,-3.076 7.159,-2.238 3.887,-0.854 0,0" />
    </g>
    <g
       transform="matrix(1.25,0,0,-1.25,221.07645,468.37264)"
       id="g4059"
       style="display:inline">
      <path
         style="fill:none;stroke:#e1bc65;stroke-width:0.28;stroke-linecap:butt;stroke-linejoin:miter;stroke-miterlimit:4;stroke-dasharray:none;stroke-opacity:1"
         d="m 270.30469,627.79102 c 0.0163,0.11125 7.17148,1.92812 16.20898,4.95312 7.73431,2.46586 14.22923,4.33936 15.9961,4.73633 1.6224,0.63566 3.79561,1.27771 6.16796,1.81641 4.8525,1.05499 8.72657,1.11984 8.60157,0.0898 -0.11125,-1.0475 -4.2018,-2.77625 -9.06055,-3.84375 -4.87125,-1.05375 -8.70359,-0.90859 -8.55859,0.0977 0.0497,0.36935 0.61758,0.80325 1.52734,1.25782 -2.69716,-0.89779 -8.17341,-2.6252 -14.625,-4.6875 -9.0425,-3.01125 -16.24531,-4.60367 -16.25781,-4.41992 z"
         transform="matrix(0.8,0,0,-0.8,-246.57546,508.4339)"
         id="path4061" />
    </g>
    <g
       transform="matrix(1.25,0,0,-1.25,229.0282,474.79114)"
       id="g4063"
       style="display:inline">
      <path
         id="path4065"
         style="fill:#e1bc65;fill-opacity:1;fill-rule:nonzero;stroke:none"
         d="m 0,0 c -3.898,0.903 -6.964,0.887 -6.865,0.068 0.094,-0.833 3.311,-2.139 7.192,-3.079 3.878,-0.912 6.974,-1 6.888,-0.17 C 7.127,-2.351 3.885,-0.919 0,0" />
    </g>
    <g
       transform="matrix(1.25,0,0,-1.25,229.0282,474.79114)"
       id="g4067"
       style="display:inline">
      <path
         style="fill:none;stroke:#e1bc65;stroke-width:0.28;stroke-linecap:butt;stroke-linejoin:miter;stroke-miterlimit:4;stroke-dasharray:none;stroke-opacity:1"
         d="m 303.66406,603.07617 c -0.1925,0.0637 3.88164,6.96383 8.65039,15.54883 3.30464,5.37239 6.53305,9.6281 8.48633,12.25586 -1.02932,-1.43447 -1.93684,-2.29987 -2.45508,-2.25977 -1.0575,0.0913 -0.15007,3.85196 1.91992,8.40821 2.05,4.57125 4.5386,8.19664 5.58985,8.11914 1.0525,-0.0738 0.26719,-3.82289 -1.78906,-8.40039 -1.00834,-2.28557 -2.17026,-4.32986 -3.21289,-5.79688 1.12314,1.51205 1.92,2.61263 1.74609,2.67578 0.8225,-0.1775 -4.60086,-6.74797 -9.72461,-15.10547 -4.71625,-8.5525 -9.09219,-15.43281 -9.21094,-15.44531 z m -20.75586,33.86914 c -0.01,0.16 6.62149,1.46617 14.86524,3.29492 7.81949,1.73583 14.21164,4.31917 14.91406,4.37891 1.18559,0.38903 2.49613,0.76724 3.89258,1.10547 4.8475,1.14 8.71687,1.25039 8.60937,0.21289 -0.11,-1.0375 -4.16133,-2.82781 -9.01757,-3.97656 -4.87251,-1.12875 -8.70579,-1.10969 -8.58204,-0.0859 0.0355,0.3145 0.45997,0.68854 1.12305,1.08203 -2.76205,-1.03204 -6.62852,-2.31992 -10.98633,-3.27734 -8.26,-1.83875 -14.83211,-2.86188 -14.81836,-2.73438 z"
         transform="matrix(0.8,0,0,-0.8,-252.93686,513.5687)"
         id="path4069" />
    </g>
    <g
       transform="matrix(1.25,0,0,-1.25,236.91333,481.33164)"
       id="g4071"
       style="display:inline">
      <path
         id="path4073"
         style="fill:#e1bc65;fill-opacity:1;fill-rule:nonzero;stroke:none"
         d="M 0,0 C -3.896,0.938 -6.968,0.995 -6.881,0.171 -6.795,-0.667 -3.585,-2.045 0.307,-3.014 4.198,-3.962 7.286,-4.067 7.203,-3.233 7.118,-2.402 3.893,-0.952 0,0" />
    </g>
    <g
       transform="matrix(1.25,0,0,-1.25,236.91333,481.33164)"
       id="g4075"
       style="display:inline">
      <path
         style="fill:none;stroke:#e1bc65;stroke-width:0.28;stroke-linecap:butt;stroke-linejoin:miter;stroke-miterlimit:4;stroke-dasharray:none;stroke-opacity:1"
         d="m 315.85547,609.10352 c -0.0863,0.0538 3.6868,6.96726 6.4668,15.63476 2.7342,8.04823 7.90771,14.16478 7.98437,15.17383 -1.56798,-2.83063 -3.14104,-4.77769 -3.9043,-4.72656 -1.055,0.0762 -0.22562,3.84976 1.79688,8.41601 2.00625,4.57875 4.47734,8.22821 5.52734,8.15821 1.05125,-0.0688 0.28219,-3.83282 -1.72656,-8.41407 -0.52046,-1.19751 -1.07924,-2.3231 -1.64062,-3.34375 0.57179,-0.72209 -4.70465,-7.13608 -7.41993,-15.25 -2.76125,-8.62125 -6.86273,-15.69218 -7.08398,-15.64843 z m 18.53906,18.34375 c 0.15875,0.0612 2.82875,6.20859 5.59375,14.05859 4.39625,7.6775 7.04695,13.75 6.9707,13.8125 0.46375,0.0538 -2.07632,-6.34984 -6.39257,-13.87109 -2.68375,-7.66125 -5.74063,-14.09 -6.17188,-14 z m 10.01953,8.36523 c -0.1575,0.0263 1.88414,5.52766 4.46289,12.31641 2.62875,6.775 5.51625,12.19679 5.625,12.18554 0.2,-0.0375 -2.41304,-5.46507 -5.02929,-12.20507 -2.57625,-6.77751 -4.8886,-12.28688 -5.0586,-12.29688 z m 5.0586,2.58008 c -0.19125,0.003 2.72421,6.34461 5.94922,14.00586 3.2425,7.76 6.7775,13.80836 6.875,13.81836 0.20125,-0.0788 -3.05852,-6.13243 -6.29102,-13.85742 -3.22875,-7.665 -6.41445,-14.01305 -6.5332,-13.9668 z m -15.125,3.41211 c -1.05125,0.07 -0.27203,3.83976 1.73046,8.41601 1.99625,4.56125 4.48501,8.21633 5.53126,8.14258 1.04874,-0.075 0.26562,-3.84305 -1.73438,-8.4043 -1.98875,-4.555 -4.48359,-8.22804 -5.52734,-8.15429 z m -39.20704,1.56445 c -0.16037,0.005 -0.24,0.0213 -0.23046,0.0449 0.0412,0.1225 5.56672,0.64688 12.60546,3.35938 6.47026,2.49033 11.8495,4.14353 12.64258,4.21484 1.2809,0.45275 2.72666,0.8942 4.28125,1.28125 4.86375,1.185 8.72485,1.31594 8.6211,0.27344 -0.10625,-1.03875 -4.13766,-2.85102 -9.00391,-4.04102 -4.87,-1.1725 -8.71031,-1.24484 -8.60156,-0.21484 0.0489,0.47639 0.93342,1.09425 2.31054,1.73828 -2.31351,-0.84244 -5.9211,-2.14723 -10.21093,-3.79687 -6.20922,-2.39532 -11.29147,-2.89768 -12.41407,-2.85938 z m 8.48633,6.49805 c 0.0263,0.185 5.66993,1.34093 12.73243,3.64843 7.07125,2.37501 12.8396,4.51399 12.8496,4.33399 0.0125,-0.12375 -5.74195,-2.51078 -12.8457,-4.89453 -7.10625,-2.32 -12.76508,-3.21539 -12.73633,-3.08789 z m 4.30078,5.94531 c -0.20768,-0.0134 -0.31289,-0.009 -0.30664,0.01 0.0325,0.1725 7.11766,1.22617 16.12891,4.29492 9.005,3.04875 16.37586,5.39734 16.38086,5.18359 -0.0225,-0.0987 -7.35031,-2.68805 -16.38281,-5.74805 -7.92203,-2.69718 -14.3665,-3.64629 -15.82032,-3.74023 z m 50.02735,5.55078 c -1.04,0.105 -0.21399,3.80672 1.91601,8.32422 2.155,4.46375 4.87625,7.9657 5.90625,7.8457 1.03875,-0.12625 0.0363,-3.86968 -2.13867,-8.27343 -2.155,-4.44 -4.63359,-8.01774 -5.68359,-7.89649 z m -38.51172,2.25586 c -0.16709,0.0104 -0.24797,0.0291 -0.23438,0.0527 0.0375,0.14874 5.91266,0.49179 13.53516,3.15429 7.595,2.58125 13.79469,4.99867 13.80469,4.79492 0.006,-0.10375 -6.15735,-2.75882 -13.8086,-5.36132 -6.7364,-2.35157 -12.12728,-2.71311 -13.29687,-2.64063 z m 3.14062,6.83008 c -0.21484,-0.005 -0.32468,0.003 -0.32031,0.0215 0.0688,0.1825 7.38,0.96828 16.875,3.48828 9.46625,2.525 17.20508,4.72305 17.20508,4.49805 -0.0288,-0.0863 -7.76687,-2.54117 -17.26563,-5.07617 -8.35843,-2.21813 -14.9902,-2.89662 -16.49414,-2.93164 z"
         transform="matrix(0.8,0,0,-0.8,-259.24496,518.8011)"
         id="path4077" />
    </g>
    <g
       transform="matrix(1.25,0,0,-1.25,244.77945,487.93439)"
       id="g4079"
       style="display:inline">
      <path
         id="path4081"
         style="fill:#e1bc65;fill-opacity:1;fill-rule:nonzero;stroke:none"
         d="M 0,0 C -3.896,0.956 -6.976,1.051 -6.894,0.22 -6.805,-0.61 -3.603,-2.051 0.313,-3.018 4.221,-3.979 7.304,-4.073 7.217,-3.236 7.13,-2.402 3.901,-0.961 0,0" />
    </g>
    <g
       transform="matrix(1.25,0,0,-1.25,244.77945,487.93439)"
       id="g4083"
       style="display:inline">
      <path
         id="path4085"
         style="fill:none;stroke:#e1bc65;stroke-width:0.22400001;stroke-linecap:butt;stroke-linejoin:miter;stroke-miterlimit:4;stroke-dasharray:none;stroke-opacity:1"
         d="M 0,0 C -3.896,0.956 -6.976,1.051 -6.894,0.22 -6.805,-0.61 -3.603,-2.051 0.313,-3.018 4.221,-3.979 7.304,-4.073 7.217,-3.236 7.13,-2.402 3.901,-0.961 0,0 Z" />
    </g>
    <g
       transform="matrix(1.25,0,0,-1.25,252.6762,494.54939)"
       id="g4087"
       style="display:inline">
      <path
         id="path4089"
         style="fill:#e1bc65;fill-opacity:1;fill-rule:nonzero;stroke:none"
         d="m 0,0 c -3.9,0.956 -6.997,1.057 -6.908,0.228 0.095,-0.832 3.31,-2.306 7.251,-3.245 C 4.276,-3.952 7.356,-4.018 7.258,-3.181 7.163,-2.348 3.924,-0.935 0,0" />
    </g>
    <g
       transform="matrix(1.25,0,0,-1.25,252.6762,494.54939)"
       id="g4091"
       style="display:inline">
      <path
         id="path4093"
         style="fill:none;stroke:#e1bc65;stroke-width:0.22400001;stroke-linecap:butt;stroke-linejoin:miter;stroke-miterlimit:4;stroke-dasharray:none;stroke-opacity:1"
         d="m 0,0 c -3.9,0.956 -6.997,1.057 -6.908,0.228 0.095,-0.832 3.31,-2.306 7.251,-3.245 C 4.276,-3.952 7.356,-4.018 7.258,-3.181 7.163,-2.348 3.924,-0.935 0,0 Z" />
    </g>
    <g
       transform="matrix(1.25,0,0,-1.25,260.65295,501.10951)"
       id="g4095"
       style="display:inline">
      <path
         id="path4097"
         style="fill:#e1bc65;fill-opacity:1;fill-rule:nonzero;stroke:none"
         d="M 0,0 C -3.909,0.918 -7.026,1.011 -6.928,0.177 -6.819,-0.65 -3.571,-2.125 0.391,-3.014 4.356,-3.897 7.434,-3.904 7.325,-3.07 7.211,-2.233 3.944,-0.891 0,0" />
    </g>
    <g
       transform="matrix(1.25,0,0,-1.25,260.65295,501.10951)"
       id="g4099"
       style="display:inline">
      <path
         id="path4101"
         style="fill:none;stroke:#e1bc65;stroke-width:0.22400001;stroke-linecap:butt;stroke-linejoin:miter;stroke-miterlimit:4;stroke-dasharray:none;stroke-opacity:1"
         d="M 0,0 C -3.909,0.918 -7.026,1.011 -6.928,0.177 -6.819,-0.65 -3.571,-2.125 0.391,-3.014 4.356,-3.897 7.434,-3.904 7.325,-3.07 7.211,-2.233 3.944,-0.891 0,0 Z" />
    </g>
    <g
       transform="matrix(1.25,0,0,-1.25,268.76208,507.55727)"
       id="g4103"
       style="display:inline">
      <path
         id="path4105"
         style="fill:#e1bc65;fill-opacity:1;fill-rule:nonzero;stroke:none"
         d="m 0,0 c -3.932,0.857 -7.066,0.909 -6.95,0.076 0.125,-0.827 3.419,-2.271 7.405,-3.09 4.008,-0.798 7.081,-0.724 6.946,0.106 C 7.274,-2.065 3.961,-0.823 0,0" />
    </g>
    <g
       transform="matrix(1.25,0,0,-1.25,225.08708,463.37014)"
       id="g4107"
       style="display:inline">
      <path
         id="path4109"
         style="fill:#e1bc65;fill-opacity:1;fill-rule:nonzero;stroke:none"
         d="M 0,0 C -1.709,3.631 -2.536,6.611 -1.681,6.706 -0.837,6.788 1.359,3.932 3.042,0.266 4.753,-3.379 5.411,-6.37 4.568,-6.441 3.732,-6.5 1.7,-3.645 0,0" />
    </g>
    <g
       transform="matrix(1.25,0,0,-1.25,225.08708,463.37014)"
       id="g4111"
       style="display:inline">
      <path
         style="fill:none;stroke:#e1bc65;stroke-width:0.28;stroke-linecap:butt;stroke-linejoin:miter;stroke-miterlimit:4;stroke-dasharray:none;stroke-opacity:1"
         d="m 293.19141,598.3125 c -0.10625,0.10625 5.81203,5.08922 9.98828,12.51172 4.31125,7.275 8.91047,12.95172 9.13672,12.79297 -0.01,-0.02 -4.24711,-5.62821 -8.56836,-12.90821 -4.165,-7.47625 -10.51789,-12.53148 -10.55664,-12.39648 z m 16.9375,23.8457 c -1.06875,0.11875 -0.0347,3.84211 2.10156,8.38086 2.125,4.55625 4.66398,8.12649 5.70898,8.05274 1.05375,-0.0888 0.2325,-3.82852 -1.90625,-8.38477 -2.10375,-4.5825 -4.84929,-8.15133 -5.90429,-8.04883 z"
         transform="matrix(0.8,0,0,-0.8,-249.78396,504.4319)"
         id="path4113" />
    </g>
    <g
       transform="matrix(1.25,0,0,-1.25,233.12358,469.85951)"
       id="g4115"
       style="display:inline">
      <path
         id="path4117"
         style="fill:#e1bc65;fill-opacity:1;fill-rule:nonzero;stroke:none"
         d="M 0,0 C -1.656,3.645 -2.383,6.654 -1.537,6.727 -0.697,6.792 1.42,3.897 3.04,0.225 4.685,-3.437 5.313,-6.437 4.471,-6.496 3.63,-6.558 1.64,-3.657 0,0" />
    </g>
    <g
       transform="matrix(1.25,0,0,-1.25,241.05695,476.43177)"
       id="g4119"
       style="display:inline">
      <path
         id="path4121"
         style="fill:#e1bc65;fill-opacity:1;fill-rule:nonzero;stroke:none"
         d="M 0,0 C -1.618,3.653 -2.282,6.671 -1.438,6.732 -0.602,6.788 1.448,3.867 3.04,0.204 4.647,-3.461 5.263,-6.471 4.422,-6.526 3.582,-6.582 1.605,-3.663 0,0" />
    </g>
    <g
       transform="matrix(1.25,0,0,-1.25,248.93595,483.05164)"
       id="g4123"
       style="display:inline">
      <path
         style="fill:#e1bc65;fill-opacity:1;fill-rule:nonzero;stroke:none"
         d="m 324.62891,618.14062 c -0.0675,0.0363 3.42562,6.79376 6.54687,15.21876 1.79875,4.19 3.66813,8.02789 5.57813,10.61914 0.46656,0.66187 0.78166,1.25318 0.99609,1.76953 -1.39056,-2.39208 -2.71341,-3.99204 -3.40234,-3.94336 -1.05125,0.07 -0.27203,3.83976 1.73046,8.41601 1.99625,4.56125 4.48501,8.21633 5.53126,8.14258 1.04874,-0.075 0.26562,-3.84305 -1.73438,-8.4043 -0.49093,-1.12442 -1.01392,-2.19417 -1.53711,-3.16796 -0.10311,-0.72718 -0.40505,-1.70112 -1.20898,-2.91407 -1.82125,-2.625 -3.55602,-6.35797 -5.35352,-10.54297 -3.1075,-8.38 -6.91273,-15.2446 -7.14648,-15.19336 z"
         transform="matrix(0.8,0,0,-0.8,-268.86306,520.1771)"
         id="path4125" />
    </g>
    <g
       transform="matrix(1.25,0,0,-1.25,256.80645,489.64214)"
       id="g4127"
       style="display:inline">
      <path
         id="path4129"
         style="fill:#e1bc65;fill-opacity:1;fill-rule:nonzero;stroke:none"
         d="M 0,0 C -1.608,3.657 -2.221,6.661 -1.382,6.721 -0.542,6.79 1.419,3.851 3.037,0.234 4.657,-3.388 5.318,-6.4 4.479,-6.469 3.644,-6.535 1.62,-3.626 0,0" />
    </g>
    <g
       transform="matrix(1.25,0,0,-1.25,256.80645,489.64214)"
       id="g4131"
       style="display:inline">
      <path
         id="path4133"
         style="fill:none;stroke:#e1bc65;stroke-width:0.22400001;stroke-linecap:butt;stroke-linejoin:miter;stroke-miterlimit:4;stroke-dasharray:none;stroke-opacity:1"
         d="M 0,0 C -1.608,3.657 -2.221,6.661 -1.382,6.721 -0.542,6.79 1.419,3.851 3.037,0.234 4.657,-3.388 5.318,-6.4 4.479,-6.469 3.644,-6.535 1.62,-3.626 0,0 Z" />
    </g>
    <g
       transform="matrix(1.25,0,0,-1.25,264.72208,496.14977)"
       id="g4135"
       style="display:inline">
      <path
         id="path4137"
         style="fill:#e1bc65;fill-opacity:1;fill-rule:nonzero;stroke:none"
         d="M 0,0 C -1.643,3.645 -2.267,6.625 -1.433,6.697 -0.591,6.772 1.368,3.863 3.03,0.276 4.695,-3.306 5.414,-6.309 4.577,-6.391 3.748,-6.471 1.661,-3.604 0,0" />
    </g>
    <g
       transform="matrix(1.25,0,0,-1.25,264.72208,496.14977)"
       id="g4139"
       style="display:inline">
      <path
         id="path4141"
         style="fill:none;stroke:#e1bc65;stroke-width:0.22400001;stroke-linecap:butt;stroke-linejoin:miter;stroke-miterlimit:4;stroke-dasharray:none;stroke-opacity:1"
         d="M 0,0 C -1.643,3.645 -2.267,6.625 -1.433,6.697 -0.591,6.772 1.368,3.863 3.03,0.276 4.695,-3.306 5.414,-6.309 4.577,-6.391 3.748,-6.471 1.661,-3.604 0,0 Z" />
    </g>
    <g
       transform="matrix(1.25,0,0,-1.25,199.3712,465.57476)"
       id="g4143"
       style="display:inline">
      <path
         id="path4145"
         style="fill:#e1bc65;fill-opacity:1;fill-rule:nonzero;stroke:none"
         d="M 0,0 C -7.23,2.42 -12.954,3.874 -12.967,3.963 -12.957,4.11 -7.196,2.836 0.038,0.427 7.277,-1.887 13.182,-3.736 13.208,-3.854 13.2,-3.991 7.258,-2.314 0,0" />
    </g>
    <g
       transform="matrix(1.25,0,0,-1.25,210.63096,473.07114)"
       id="g4147"
       style="display:inline">
      <path
         id="path4149"
         style="fill:#e1bc65;fill-opacity:1;fill-rule:nonzero;stroke:none"
         d="M 0,0 C -6.595,1.463 -11.9,2.508 -11.892,2.636 -11.903,2.738 -6.646,1.92 -0.038,0.449 6.621,-1.014 12.064,-3.5 12.04,-3.517 12.015,-3.723 6.613,-1.468 0,0" />
    </g>
    <g
       transform="matrix(1.25,0,0,-1.25,220.3722,479.60439)"
       id="g4151"
       style="display:inline">
      <path
         id="path4153"
         style="fill:#e1bc65;fill-opacity:1;fill-rule:nonzero;stroke:none"
         d="M 0,0 C -5.631,2.17 -10.051,2.59 -10.084,2.688 -10.145,2.839 -5.645,2.627 0.032,0.437 5.662,-1.728 10.223,-3.295 10.242,-3.375 10.255,-3.552 5.612,-2.16 0,0" />
    </g>
    <g
       transform="matrix(1.25,0,0,-1.25,229.21671,486.34626)"
       id="g4155"
       style="display:inline">
      <path
         id="path4157"
         style="fill:#e1bc65;fill-opacity:1;fill-rule:nonzero;stroke:none"
         d="M 0,0 C -5.65,1.846 -10.165,2.771 -10.186,2.919 -10.209,3.021 -5.682,2.305 0.003,0.449 5.686,-1.458 10.29,-3.368 10.28,-3.467 10.272,-3.611 5.657,-1.9 0,0" />
    </g>
    <g
       transform="matrix(1.25,0,0,-1.25,236.60745,492.94789)"
       id="g4159"
       style="display:inline">
      <path
         id="path4161"
         style="fill:#e1bc65;fill-opacity:1;fill-rule:nonzero;stroke:none"
         d="M 0,0 C -7.209,2.455 -12.878,3.299 -12.904,3.437 -12.944,3.558 -7.245,2.918 -0.002,0.452 7.224,-1.996 13.086,-4.067 13.104,-4.146 13.1,-4.317 7.204,-2.439 0,0" />
    </g>
    <g
       transform="matrix(1.25,0,0,-1.25,245.60045,499.65676)"
       id="g4163"
       style="display:inline">
      <path
         id="path4165"
         style="fill:#e1bc65;fill-opacity:1;fill-rule:nonzero;stroke:none"
         d="M 0,0 C -6.098,2.13 -10.797,2.405 -10.827,2.524 -10.914,2.675 -6.161,2.603 -0.002,0.453 6.119,-1.629 11.049,-3.753 11.044,-3.836 11.036,-3.999 6.076,-2.065 0,0" />
    </g>
    <g
       transform="matrix(1.25,0,0,-1.25,251.9957,506.78939)"
       id="g4167"
       style="display:inline">
      <path
         id="path4169"
         style="fill:#e1bc65;fill-opacity:1;fill-rule:nonzero;stroke:none"
         d="M 0,0 C -7.596,2.016 -13.445,2.644 -13.5,2.79 -13.528,2.909 -7.69,2.491 -0.048,0.463 7.551,-1.565 13.741,-3.529 13.764,-3.598 13.764,-3.778 7.573,-2.02 0,0" />
    </g>
    <g
       transform="matrix(1.25,0,0,-1.25,216.03683,443.65464)"
       id="g4171"
       style="display:inline">
      <path
         id="path4173"
         style="fill:#e1bc65;fill-opacity:1;fill-rule:nonzero;stroke:none"
         d="M 0,0 C -3.341,5.938 -8.075,9.925 -7.99,10.01 -7.959,10.118 -2.877,6.074 0.455,0.093 3.912,-5.731 7.301,-10.219 7.309,-10.235 7.128,-10.362 3.449,-5.82 0,0" />
    </g>
    <g
       transform="matrix(1.25,0,0,-1.25,225.17133,451.45489)"
       id="g4175"
       style="display:inline">
      <path
         id="path4177"
         style="fill:#e1bc65;fill-opacity:1;fill-rule:nonzero;stroke:none"
         d="M 0,0 C -3.815,6.868 -7.074,12.387 -6.92,12.438 -6.825,12.428 -3.324,6.924 0.449,0.082 4.548,-6.604 8.887,-11.86 8.229,-12.002 8.609,-11.864 4.208,-6.841 0,0" />
    </g>
    <g
       transform="matrix(1.25,0,0,-1.25,235.17933,457.56939)"
       id="g4179"
       style="display:inline">
      <path
         id="path4181"
         style="fill:#e1bc65;fill-opacity:1;fill-rule:nonzero;stroke:none"
         d="M 0,0 C -2.224,6.934 -5.242,12.465 -5.173,12.508 -4.996,12.543 -1.715,6.887 0.494,-0.01 2.791,-6.874 7.383,-12.222 6.307,-12.268 7.13,-12.244 2.391,-7.038 0,0" />
    </g>
    <g
       transform="matrix(1.25,0,0,-1.25,244.03308,466.19001)"
       id="g4183"
       style="display:inline">
      <path
         id="path4185"
         style="fill:#e1bc65;fill-opacity:1;fill-rule:nonzero;stroke:none"
         d="m 0,0 c -2.497,6.74 -5.292,12.146 -5.238,12.175 0.187,0.041 3.232,-5.451 5.718,-12.155 1.438,-3.348 2.826,-6.333 4.283,-8.433 1.482,-2.236 0.889,-3.529 0.924,-3.47 -0.17,0.049 0.268,1.27 -1.225,3.388 C 2.934,-6.422 1.439,-3.352 0,0" />
    </g>
    <g
       transform="matrix(1.25,0,0,-1.25,252.8447,474.33577)"
       id="g4187"
       style="display:inline">
      <path
         id="path4189"
         style="fill:#e1bc65;fill-opacity:1;fill-rule:nonzero;stroke:none"
         d="M 0,0 C -2.212,6.28 -4.347,11.198 -4.474,11.247 -4.129,11.319 -1.684,6.175 0.463,0.046 3.916,-5.971 5.948,-11.093 5.577,-11.05 5.638,-11 3.517,-6.142 0,0" />
    </g>
    <g
       transform="matrix(1.25,0,0,-1.25,261.73445,480.95926)"
       id="g4191"
       style="display:inline">
      <path
         id="path4193"
         style="fill:#e1bc65;fill-opacity:1;fill-rule:nonzero;stroke:none"
         d="M 0,0 C -2.063,5.431 -3.696,9.832 -3.57,9.853 -3.434,9.845 -1.585,5.437 0.476,0.015 2.569,-5.377 4.659,-9.719 4.499,-9.749 4.412,-9.758 2.103,-5.42 0,0" />
    </g>
    <g
       transform="matrix(1.25,0,0,-1.25,200.79695,448.81214)"
       id="g4195"
       style="display:inline">
      <path
         id="path4197"
         style="fill:#e1bc65;fill-opacity:1;fill-rule:nonzero;stroke:none"
         d="M 0,0 C -5.669,5.064 -11.55,7.275 -11.442,7.469 -11.532,7.511 -5.446,5.41 0.296,0.275 5.978,-4.711 10.314,-8.91 10.28,-8.966 10.167,-9.077 5.642,-4.947 0,0" />
    </g>
  </g>
</svg>
